<svg style="display: none;" xmlns="http://www.w3.org/2000/svg">
  <symbol id="youtube" viewBox="0 0 24 24">
    <path d="M14.0037 11.7913L11.1963 10.4813C10.9513 10.3675 10.75 10.495 10.75 10.7662V13.2338C10.75 13.505 10.9513 13.6325 11.1963 13.5188L14.0025 12.2087C14.2488 12.0938 14.2487 11.9063 14.0037 11.7913ZM12 0C5.3725 0 0 5.3725 0 12C0 18.6275 5.3725 24 12 24C18.6275 24 24 18.6275 24 12C24 5.3725 18.6275 0 12 0ZM12 16.875C5.8575 16.875 5.75 16.3213 5.75 12C5.75 7.67875 5.8575 7.125 12 7.125C18.1425 7.125 18.25 7.67875 18.25 12C18.25 16.3213 18.1425 16.875 12 16.875Z"/>
  </symbol>
  <symbol id="instagram" viewBox="0 0 24 24">
    <path fill-rule="evenodd" clip-rule="evenodd" d="M12 24C18.6274 24 24 18.6274 24 12C24 5.37258 18.6274 0 12 0C5.37258 0 0 5.37258 0 12C0 18.6274 5.37258 24 12 24ZM9.66383 12C9.66383 10.7146 10.7128 9.66567 11.9981 9.66567C13.2835 9.66567 14.3324 10.7146 14.3324 12C14.3324 13.2854 13.2835 14.3343 11.9981 14.3343C10.7128 14.3343 9.66383 13.2854 9.66383 12ZM18.9995 11.6464C18.9993 11.7641 18.9992 11.882 18.9992 12C18.9992 12.1319 18.9994 12.2637 18.9996 12.3954C19.0008 13.2283 19.0021 14.0563 18.9537 14.8895C18.8994 16.0102 18.6455 17.0031 17.8242 17.8244C17.0047 18.644 16.01 18.8997 14.8893 18.9539C14.0421 19.0016 13.2004 19.0007 12.3534 18.9997C12.2357 18.9996 12.1178 18.9995 11.9999 18.9995C11.8821 18.9995 11.7645 18.9996 11.647 18.9997C10.8011 19.0007 9.95916 19.0016 9.11047 18.9539C7.98974 18.8997 6.99683 18.6457 6.17554 17.8244C5.356 17.0049 5.10034 16.0102 5.04605 14.8895C4.99839 14.0423 4.99932 13.1992 5.00026 12.353C5.00039 12.2354 5.00052 12.1177 5.00052 12C5.00052 11.8823 5.00039 11.7646 5.00026 11.647C4.99932 10.8012 4.99839 9.95924 5.04605 9.11055C5.10034 7.98979 5.35425 6.99687 6.17554 6.17556C6.99508 5.35601 7.98974 5.10034 9.11047 5.04605C9.95759 4.99839 10.7993 4.99932 11.6463 5.00026C11.764 5.00039 11.8819 5.00052 11.9999 5.00052C12.1176 5.00052 12.2353 5.00039 12.3528 5.00026C13.1987 4.99932 14.0406 4.99839 14.8893 5.04605C16.01 5.10034 17.0029 5.35426 17.8242 6.17556C18.6437 6.99512 18.8994 7.98979 18.9537 9.11055C19.0013 9.95767 19.0004 10.7994 18.9995 11.6464ZM8.40651 12C8.40651 13.9876 10.0106 15.5917 11.9981 15.5917C13.9857 15.5917 15.5897 13.9876 15.5897 12C15.5897 10.0124 13.9857 8.40832 11.9981 8.40832C10.0106 8.40832 8.40651 10.0124 8.40651 12ZM14.898 8.26122C14.898 8.72529 15.2728 9.10004 15.7368 9.10004C15.847 9.10018 15.9562 9.07858 16.058 9.03647C16.1598 8.99437 16.2523 8.93258 16.3303 8.85466C16.4082 8.77675 16.47 8.68422 16.5121 8.58239C16.5542 8.48056 16.5758 8.37142 16.5756 8.26122C16.5756 7.79716 16.2009 7.42241 15.7368 7.42241C15.2728 7.42241 14.898 7.79716 14.898 8.26122Z"/>
  </symbol>
  <symbol id="messenger" viewBox="0 0 24 24">
    <path fill-rule="evenodd" clip-rule="evenodd" d="M12 24C18.6274 24 24 18.6274 24 12C24 5.37258 18.6274 0 12 0C5.37258 0 0 5.37258 0 12C0 18.6274 5.37258 24 12 24ZM5.3335 11.9391C5.3335 13.6004 6.23883 15.1184 7.63816 16.1237C7.7615 16.2057 7.82283 16.3284 7.82283 16.4924C7.82283 16.5131 7.81783 16.5387 7.81283 16.5644C7.80783 16.5901 7.80283 16.6157 7.80283 16.6364C7.6995 17.0464 7.51416 17.7237 7.49416 17.7437C7.49015 17.7554 7.48619 17.7663 7.4824 17.7767C7.46602 17.8218 7.45283 17.858 7.45283 17.9084C7.45353 17.9682 7.47767 18.0253 7.52007 18.0674C7.56246 18.1096 7.61972 18.1334 7.6795 18.1337C7.72318 18.1294 7.76533 18.1152 7.80283 18.0924L9.2635 17.2517C9.36683 17.1897 9.49016 17.1497 9.6135 17.1497H9.61351C9.67484 17.1497 9.7575 17.1497 9.81883 17.1697C10.5271 17.3779 11.262 17.4815 12.0002 17.4771C15.6835 17.4771 18.6668 14.9951 18.6668 11.9391C18.6668 8.88239 15.6835 6.40039 12.0002 6.40039C8.31683 6.40039 5.3335 8.88239 5.3335 11.9391ZM10.6348 10.1511C10.6348 10.6291 10.2562 11.0077 9.77816 11.0077C9.2995 11.0077 8.9215 10.6291 8.9215 10.1511C8.9215 9.67239 9.2995 9.29372 9.77816 9.29372C10.2562 9.29372 10.6348 9.67239 10.6348 10.1511ZM15.0788 10.1511C15.0788 10.6291 14.7008 11.0077 14.2222 11.0077C13.7442 11.0077 13.3655 10.6291 13.3655 10.1511C13.3655 9.67239 13.7442 9.29372 14.2222 9.29372C14.7008 9.29372 15.0788 9.67239 15.0788 10.1511Z"/>
  </symbol>
  <symbol id="telegram" viewBox="0 0 24 24">
    <path d="M12 0C5.37097 0 0 5.37097 0 12C0 18.629 5.37097 24 12 24C18.629 24 24 18.629 24 12C24 5.37097 18.629 0 12 0ZM17.8935 8.22097L15.9242 17.5016C15.779 18.1597 15.3871 18.3194 14.8403 18.0097L11.8403 15.7984L10.3935 17.1919C10.2339 17.3516 10.0984 17.4871 9.78871 17.4871L10.0016 14.4339L15.5613 9.41129C15.8032 9.19839 15.5081 9.07742 15.1887 9.29032L8.31774 13.6161L5.35645 12.6919C4.7129 12.4887 4.69839 12.0484 5.49194 11.7387L17.0613 7.27742C17.5984 7.08387 18.0677 7.40806 17.8935 8.22097Z"/>
  </symbol>
  <symbol id="vkontakte" viewBox="0 0 24 24">
    <path d="M12 0C5.3725 0 0 5.3725 0 12C0 18.6275 5.3725 24 12 24C18.6275 24 24 18.6275 24 12C24 5.3725 18.6275 0 12 0ZM16.615 13.5388C16.615 13.5388 17.6763 14.5863 17.9375 15.0725C17.945 15.0825 17.9487 15.0925 17.9513 15.0975C18.0575 15.2762 18.0825 15.415 18.03 15.5188C17.9425 15.6912 17.6425 15.7763 17.54 15.7838H15.665C15.535 15.7838 15.2625 15.75 14.9325 15.5225C14.6788 15.345 14.4288 15.0538 14.185 14.77C13.8213 14.3475 13.5063 13.9825 13.1888 13.9825C13.1484 13.9824 13.1083 13.9888 13.07 14.0013C12.83 14.0788 12.5225 14.4213 12.5225 15.3337C12.5225 15.6188 12.2975 15.7825 12.1388 15.7825H11.28C10.9875 15.7825 9.46375 15.68 8.11375 14.2563C6.46125 12.5125 4.97375 9.015 4.96125 8.9825C4.8675 8.75625 5.06125 8.635 5.2725 8.635H7.16625C7.41875 8.635 7.50125 8.78875 7.55875 8.925C7.62625 9.08375 7.87375 9.715 8.28 10.425C8.93875 11.5825 9.3425 12.0525 9.66625 12.0525C9.72696 12.0518 9.78658 12.0363 9.84 12.0075C10.2625 11.7725 10.1838 10.2662 10.165 9.95375C10.165 9.895 10.1637 9.28 9.9475 8.985C9.7925 8.77125 9.52875 8.69 9.36875 8.66C9.43351 8.57064 9.51883 8.49818 9.6175 8.44875C9.9075 8.30375 10.43 8.2825 10.9488 8.2825H11.2375C11.8 8.29 11.945 8.32625 12.1488 8.3775C12.5613 8.47625 12.57 8.7425 12.5338 9.65375C12.5225 9.9125 12.5113 10.205 12.5113 10.55C12.5113 10.625 12.5075 10.705 12.5075 10.79C12.495 11.2537 12.48 11.78 12.8075 11.9963C12.8502 12.023 12.8996 12.0373 12.95 12.0375C13.0638 12.0375 13.4062 12.0375 14.3337 10.4463C14.6198 9.93407 14.8684 9.40185 15.0775 8.85375C15.0963 8.82125 15.1513 8.72125 15.2163 8.6825C15.2642 8.65804 15.3174 8.64561 15.3713 8.64625H17.5975C17.84 8.64625 18.0063 8.6825 18.0375 8.77625C18.0925 8.925 18.0275 9.37875 17.0112 10.755L16.5575 11.3538C15.6363 12.5613 15.6363 12.6225 16.615 13.5388Z"/>
  </symbol>
  <symbol id="arrowLeft" viewBox="0 0 16 16">
    <path fill-rule="evenodd" clip-rule="evenodd" d="M8 0L16 8L8 16L6.01761 14.0176L10.6335 9.40176H0V6.59824H10.6335L6.01761 1.98239L8 0Z"/>
  </symbol>
  <symbol id="purchaseDashTop" viewBox="0 0 468 146">
     <path  d="M467 0V44.8983C467 49.3166 463.418 52.8983 459 52.8983H9C4.58173 52.8983 1 56.48 1 60.8983V146"/>
  </symbol>
  <symbol id="purchaseDashBottom" viewBox="0 0 778 240">
    <path d="M1.00003 0V53.9561C1.00003 58.3744 4.58175 61.9561 9.00003 61.9561H769C773.418 61.9561 777 65.5378 777 69.9561V240" />
  </symbol>
  <symbol id="cleaningDashTop" viewBox="0 0 778 270">
    <path class="dash-animation" d="M777 0V131.448C777 135.866 773.418 139.448 769 139.448H9C4.58172 139.448 1 143.03 1 147.448V313" />
  </symbol>
  <symbol id="cleaningDashBottom" viewBox="0 0 778 190">
    <path d="M1 0V80.0894C1 84.5077 4.58172 88.0894 9 88.0894H769C773.418 88.0894 777 91.6711 777 96.0894V260" />
  </symbol>
  <symbol id="dashCenter" viewBox="0 0 2 101">
    <path d="M1 0V101" />
  </symbol>
  <symbol id="typesDashTop" viewBox="0 0 778 373">
    <path d="M777 0V176C777 180.418 773.418 184 769 184H9C4.58172 184 1 187.582 1 192V373"/>
  </symbol>
  <symbol id="typesDashBottom" viewBox="0 0 502 207">
    <path d="M1 0.5V131.279C1 135.697 4.58172 139.279 9 139.279H493C497.418 139.279 501 142.861 501 147.279V207"/>
  </symbol>
</svg>
